HIERARCHY
ROOT Hips
{
	OFFSET 0.000000 0.000000 0.000000
	CHANNELS 6 Xposition Yposition Zposition Zrotation Yrotation Xrotation 
	JOINT LHipJoint
	{
		OFFSET 0.000000 0.000000 0.000000
		CHANNELS 3 Zrotation Yrotation Xrotation
		JOINT LeftUpLeg
		{
			OFFSET 1.363060 -1.794630 0.839290
			CHANNELS 3 Zrotation Yrotation Xrotation
			JOINT LeftLeg
			{
				OFFSET 2.448110 -6.726130 0.000000
				CHANNELS 3 Zrotation Yrotation Xrotation
				JOINT LeftFoot
				{
					OFFSET 2.562200 -7.039590 0.000000
					CHANNELS 3 Zrotation Yrotation Xrotation
					JOINT LeftToeBase
					{
						OFFSET 0.157640 -0.433110 2.322550
						CHANNELS 3 Zrotation Yrotation Xrotation
						End Site
						{
							OFFSET 0.000000 0.000000 0.000000
						}
					}
				}
			}
		}
	}
	JOINT RHipJoint
	{
		OFFSET 0.000000 0.000000 0.000000
		CHANNELS 3 Zrotation Yrotation Xrotation
		JOINT RightUpLeg
		{
			OFFSET -1.305520 -1.794630 0.839290
			CHANNELS 3 Zrotation Yrotation Xrotation
			JOINT RightLeg
			{
				OFFSET -2.542530 -6.985550 0.000000
				CHANNELS 3 Zrotation Yrotation Xrotation
				JOINT RightFoot
				{
					OFFSET -2.568260 -7.056230 0.000000
					CHANNELS 3 Zrotation Yrotation Xrotation
					JOINT RightToeBase
					{
						OFFSET -0.164730 -0.452590 2.363150
						CHANNELS 3 Zrotation Yrotation Xrotation
						End Site
						{
							OFFSET 0.000000 0.000000 0.000000
						}
					}
				}
			}
		}
	}
	JOINT LowerBack
	{
		OFFSET 0.000000 0.000000 0.000000
		CHANNELS 3 Zrotation Yrotation Xrotation
		JOINT Spine
		{
			OFFSET 0.028270 2.035590 -0.193380
			CHANNELS 3 Zrotation Yrotation Xrotation
			JOINT Spine1
			{
				OFFSET 0.056720 2.048850 -0.042750
				CHANNELS 3 Zrotation Yrotation Xrotation
				JOINT Neck
				{
					OFFSET 0.000000 0.000000 0.000000
					CHANNELS 3 Zrotation Yrotation Xrotation
					JOINT Neck1
					{
						OFFSET -0.054170 1.746240 0.172020
						CHANNELS 3 Zrotation Yrotation Xrotation
						JOINT Head
						{
							OFFSET 0.104070 1.761360 -0.123970
							CHANNELS 3 Zrotation Yrotation Xrotation
							End Site
							{
								OFFSET 0.000000 0.000000 0.000000
							}
						}
					}
				}
				JOINT LeftShoulder
				{
					OFFSET 0.000000 0.000000 0.000000
					CHANNELS 3 Zrotation Yrotation Xrotation
					JOINT LeftArm
					{
						OFFSET 3.362410 1.200890 -0.311210
						CHANNELS 3 Zrotation Yrotation Xrotation
						JOINT LeftForeArm
						{
							OFFSET 4.983000 -0.000000 -0.000000
							CHANNELS 3 Zrotation Yrotation Xrotation
							JOINT LeftHand
							{
								OFFSET 3.483560 -0.000000 -0.000000
								CHANNELS 3 Zrotation Yrotation Xrotation
								JOINT LeftFingerBase
								{
									OFFSET 0.000000 0.000000 0.000000
									CHANNELS 3 Zrotation Yrotation Xrotation
									JOINT LeftHandIndex1
									{
										OFFSET 0.715260 -0.000000 -0.000000
										CHANNELS 3 Zrotation Yrotation Xrotation
										End Site
										{
											OFFSET 0.000000 0.000000 0.000000
										}
									}
								}
								JOINT LThumb
								{
									OFFSET 0.000000 0.000000 0.000000
									CHANNELS 3 Zrotation Yrotation Xrotation
									End Site
									{
										OFFSET 0.000000 0.000000 0.000000
									}
								}
							}
						}
					}
				}
				JOINT RightShoulder
				{
					OFFSET 0.000000 0.000000 0.000000
					CHANNELS 3 Zrotation Yrotation Xrotation
					JOINT RightArm
					{
						OFFSET -3.136600 1.374050 -0.404650
						CHANNELS 3 Zrotation Yrotation Xrotation
						JOINT RightForeArm
						{
							OFFSET -5.241900 -0.000000 -0.000000
							CHANNELS 3 Zrotation Yrotation Xrotation
							JOINT RightHand
							{
								OFFSET -3.444170 -0.000000 -0.000000
								CHANNELS 3 Zrotation Yrotation Xrotation
								JOINT RightFingerBase
								{
									OFFSET 0.000000 0.000000 0.000000
									CHANNELS 3 Zrotation Yrotation Xrotation
									JOINT RightHandIndex1
									{
										OFFSET -0.622530 -0.000000 -0.000000
										CHANNELS 3 Zrotation Yrotation Xrotation
										End Site
										{
											OFFSET 0.000000 0.000000 0.000000
										}
									}
								}
								JOINT RThumb
								{
									OFFSET 0.000000 0.000000 0.000000
									CHANNELS 3 Zrotation Yrotation Xrotation
									End Site
									{
										OFFSET 0.000000 0.000000 0.000000
									}
								}
							}
						}
					}
				}
			}
		}
	}
}
MOTION
Frames: 7
Frame Time: 0.008333
-0.116378 17.787122 8.333677 2.487966 4.045816 3.500301 0.563796 3.000729 2.861966 -22.556407 -4.353942 14.344448 0.656400 6.522889 22.229729 0.839311 1.145704 22.146281 1.308400 -7.245900 -20.445800 -2.656672 -2.247469 0.531748 16.762805 14.287652 -32.416544 -2.862364 -11.818191 33.419988 0.871952 -7.109791 7.183254 -0.074800 1.764600 -4.855600 -1.728458 -3.137744 3.334278 1.666992 -4.507950 -1.839216 6.453852 -2.092523 -2.014667 -8.157150 -0.803440 -11.160598 1.822887 0.240149 17.042852 2.371800 -0.760500 10.507700 -7.042196 2.880873 -2.631992 -80.375961 -1.764821 24.003976 16.653764 -29.260915 -5.870587 -1.540718 -2.795795 7.591242 20.762056 17.990190 8.223200 -7.125000 0.000000 0.000000 -6.857400 52.338800 -1.243500 6.517853 -2.857478 -2.125951 80.690328 -6.609399 -3.583202 -8.449485 13.290927 -1.285107 0.537927 -1.900910 23.203137 -13.254963 17.428516 -4.789800 7.125000 0.000000 0.000000 8.902500 -10.677100 7.188600 
-0.147289 17.828781 8.570323 2.239918 4.471976 3.098373 0.580406 2.965378 2.815535 -22.179707 -4.796038 13.592914 1.059542 7.330066 24.580916 1.113834 1.058779 24.619999 1.300200 -7.223900 -20.380400 -2.662862 -2.268396 0.539898 17.463233 13.974699 -31.265100 -2.974644 -11.886561 33.843985 0.991342 -7.456471 6.582581 -0.019700 0.905800 -2.489700 -1.649863 -3.318634 3.497883 1.755290 -4.744006 -1.761529 6.643588 -2.217237 -1.826746 -8.301527 -0.713902 -11.234092 1.921670 0.401519 17.095449 2.456800 -0.691800 10.525600 -7.029536 2.936339 -2.624091 -80.842006 -1.325027 23.779710 16.697228 -29.316421 -5.874789 -1.269604 -3.145965 7.435313 18.602861 21.744051 8.534200 -7.125000 0.000000 0.000000 -10.982200 56.036500 -2.998900 6.516167 -2.880618 -2.132611 80.691479 -6.645186 -3.181104 -8.631012 13.582874 -1.345152 0.571306 -1.836633 22.318952 -13.144184 17.138115 -4.663500 7.125000 0.000000 0.000000 8.977000 -11.036000 7.183600 
-0.170524 17.863991 8.793253 2.257188 4.915721 2.895589 0.592428 2.906503 2.752964 -22.177381 -5.411081 12.647304 1.514406 8.157578 27.027633 1.436075 1.025874 27.315066 1.090100 -6.635300 -18.639200 -2.658266 -2.278071 0.557335 17.791599 13.540176 -30.400452 -3.055087 -11.926813 34.136717 1.095225 -7.734880 5.914391 -0.007900 0.575000 -1.579900 -1.756513 -3.509380 3.608335 1.807232 -5.008409 -1.759337 6.826844 -2.338066 -1.842797 -8.520465 -0.573733 -11.017112 2.083364 0.619143 17.102809 2.594300 -0.598100 10.455200 -7.030385 3.001730 -2.624780 -81.305045 -0.730404 23.618369 16.623993 -29.240303 -5.845514 -1.350174 -3.031085 7.417371 19.254120 20.362199 8.394300 -7.125000 0.000000 0.000000 -9.550900 54.678200 -2.286300 6.487333 -2.899682 -2.151917 80.741919 -6.864761 -2.570126 -8.873028 13.975721 -1.427868 0.609558 -1.769571 21.265717 -13.054096 16.896809 -4.557200 7.125000 0.000000 0.000000 9.039600 -11.344000 7.177100 
-0.186492 17.897564 9.004003 2.257846 4.929352 2.867448 0.600329 2.829118 2.667885 -22.293061 -5.807335 11.304193 2.049776 9.010833 29.568804 1.736197 1.435957 29.998197 0.668500 -5.228700 -14.562200 -2.645172 -2.276989 0.584606 18.107650 13.318376 -29.699024 -3.071589 -11.896275 34.196127 1.082462 -7.519882 5.344902 -0.010400 0.657800 -1.807600 -1.746569 -3.496876 3.578131 1.812933 -5.001221 -1.790596 6.825798 -2.311550 -1.960755 -8.586507 -0.504818 -10.600110 2.121308 0.693150 17.148070 2.634100 -0.570200 10.366500 -7.034548 3.059964 -2.630912 -81.652788 -0.069066 23.625336 16.540467 -29.145534 -5.796507 -1.345633 -3.037869 7.683505 19.117785 20.431448 8.351400 -7.125000 0.000000 0.000000 -9.745600 54.730300 -2.346000 6.458307 -2.920641 -2.169776 80.895893 -7.116265 -2.192676 -9.077707 14.295272 -1.497747 0.662452 -1.666422 20.213757 -13.016972 16.274174 -4.369800 7.125000 0.000000 0.000000 9.057700 -12.070200 7.054200 
-0.204609 17.926326 9.193156 2.116741 4.158996 2.964026 0.607461 2.732181 2.555794 -22.365700 -5.702798 9.431259 2.690872 9.903763 32.289429 1.982949 2.227622 32.297689 0.362300 -3.866400 -10.701200 -2.640200 -2.265108 0.617317 18.584466 13.788223 -29.019153 -3.044768 -11.806213 34.063959 1.028135 -7.181691 5.063695 -0.010000 0.644200 -1.770300 -1.668128 -3.190836 3.707872 1.808620 -4.598031 -1.809468 6.802540 -2.086166 -2.129979 -8.394824 -0.558495 -10.649638 1.953089 0.596492 17.139121 2.501400 -0.612000 10.394200 -7.017003 3.062988 -2.645204 -81.990913 0.452156 23.738629 16.562034 -29.161282 -5.795523 -1.365736 -3.067863 7.632690 19.381219 20.718966 8.583900 -7.125000 0.000000 0.000000 -9.588100 55.111400 -2.396800 6.476134 -2.913526 -2.177935 81.032899 -6.967390 -2.174635 -9.167137 14.393326 -1.526877 0.663986 -1.580335 19.597732 -12.718379 15.689004 -4.109000 7.125000 0.000000 0.000000 9.272600 -12.758600 7.091500 
-0.249645 17.975047 9.411889 1.570287 4.593207 2.746857 0.648721 2.687199 2.471382 -21.617874 -6.348309 8.105003 3.313031 10.733560 34.958975 2.286398 2.302371 34.166987 0.190100 -2.807600 -7.743600 -2.634926 -2.287393 0.641400 19.623331 13.973720 -27.543152 -3.013447 -11.644622 33.762518 1.277842 -8.068400 4.144694 -0.000000 0.043600 -0.119900 -1.347785 -3.263911 3.851988 1.877106 -4.680555 -1.781573 6.837079 -2.119577 -2.119663 -8.336225 -0.649430 -10.574733 2.004708 0.442846 17.024618 2.495700 -0.663300 10.329400 -7.023145 3.092609 -2.645516 -82.139696 0.825577 24.273041 16.449200 -29.023490 -5.716216 -1.347122 -3.138275 6.792834 19.554020 21.149288 8.833300 -7.125000 0.000000 0.000000 -9.594300 55.642100 -2.522500 6.507656 -2.912313 -2.157638 81.202222 -6.733066 -2.414834 -9.124073 14.275373 -1.502991 0.686390 -1.532044 19.328895 -12.732344 15.218266 -3.991200 7.125000 0.000000 0.000000 9.258200 -13.279500 6.977700 
-0.267455 18.015682 9.614962 1.057783 4.025692 2.745564 0.685790 2.615623 2.371117 -21.194764 -6.315649 6.308934 3.964495 11.507324 37.547520 2.503144 2.575878 35.533234 0.086500 -1.897100 -5.221400 -2.636101 -2.290018 0.673073 20.559528 14.327228 -26.499185 -2.948202 -11.471256 33.392705 1.329464 -8.176283 3.721393 -0.000800 -0.179200 0.492300 -0.817209 -3.035540 3.773331 1.911567 -4.357061 -1.796367 6.671913 -1.936980 -2.243270 -8.436459 -0.670420 -10.070473 2.090353 0.386975 16.904813 2.561900 -0.686900 10.155000 -7.047685 3.141822 -2.638709 -82.328366 1.289209 24.527180 16.187979 -28.693151 -5.569520 -1.278923 -3.148718 6.680484 18.871145 21.085020 8.470300 -7.125000 0.000000 0.000000 -10.342300 55.427600 -2.668000 6.504898 -2.912441 -2.156678 81.258342 -6.836932 -1.803998 -9.191668 14.355883 -1.523287 0.745523 -1.392916 18.501567 -12.756038 14.123694 -3.705800 7.125000 0.000000 0.000000 9.239100 -14.517200 6.717600 
